<svg xmlns="http://www.w3.org/2000/svg" viewBox="0 0 820 520"><defs><style>.cls-1{fill:#fff;}</style></defs><g id="Слой_2" data-name="Слой 2"><g id="Слой_1-2" data-name="Слой 1"><path class="cls-1" d="M800,10a10,10,0,0,1,10,10V500a10,10,0,0,1-10,10H20a10,10,0,0,1-10-10V20A10,10,0,0,1,20,10H800m0-10H20A20,20,0,0,0,0,20V500a20,20,0,0,0,20,20H800a20,20,0,0,0,20-20V20A20,20,0,0,0,800,0Z"/><path class="cls-1" d="M800,10a10,10,0,0,1,10,10v86H10V20A10,10,0,0,1,20,10H800m0-10H20A20,20,0,0,0,0,20v96H820V20A20,20,0,0,0,800,0Z"/><path class="cls-1" d="M810,414v86a10,10,0,0,1-10,10H20a10,10,0,0,1-10-10V414H810m10-10H0v96a20,20,0,0,0,20,20H800a20,20,0,0,0,20-20V404Z"/><circle class="cls-1" cx="58" cy="58" r="28"/><rect class="cls-1" x="106" y="52" width="96" height="12" rx="4.17"/><rect class="cls-1" x="694" y="52" width="96" height="12" rx="4.17"/><rect class="cls-1" x="583" y="52" width="96" height="12" rx="4.17"/><rect class="cls-1" x="472" y="52" width="96" height="12" rx="4.17"/><rect class="cls-1" x="272" y="456" width="128" height="12" rx="4.17"/><rect class="cls-1" x="420" y="456" width="128" height="12" rx="4.17"/><path class="cls-1" d="M170,116V404H10V116H170m10-10H0V414H180V106Z"/><path class="cls-1" d="M810,116V404H650V116H810m10-10H640V414H820V106Z"/></g></g></svg>