<svg xmlns="http://www.w3.org/2000/svg" xmlns:xlink="http://www.w3.org/1999/xlink" viewBox="0 0 985.4 492.78"><defs><style>.cls-1{fill:url(#Безымянный_градиент_18);}.cls-2,.cls-6{opacity:0.5;}.cls-10,.cls-11,.cls-2,.cls-8{font-size:24px;font-family:CeraRoundPro-Bold, Cera Round Pro;font-weight:700;}.cls-2{fill:#0b0c32;}.cls-3{letter-spacing:-0.01em;}.cls-4{letter-spacing:-0.02em;}.cls-5{letter-spacing:-0.01em;}.cls-6{fill:#fff;}.cls-7,.cls-8{fill:#005e9f;}.cls-10,.cls-9{fill:#35c8ff;}.cls-11,.cls-12{fill:#aa009e;}</style><linearGradient id="Безымянный_градиент_18" x1="704.48" y1="454.67" x2="155.33" y2="-94.48" gradientUnits="userSpaceOnUse"><stop offset="0" stop-color="#2f80ed"/><stop offset="1" stop-color="#56ccf2"/></linearGradient></defs><g id="Слой_2" data-name="Слой 2"><g id="Слой_1-2" data-name="Слой 1"><rect class="cls-1" x="29.9" y="25.09" width="800" height="310.02" rx="10"/><text class="cls-2" transform="translate(49.9 50.02)">fl<tspan class="cls-3" x="15.02" y="0">e</tspan><tspan class="cls-4" x="28.44" y="0">x</tspan><tspan x="40.7" y="0">-</tspan><tspan class="cls-5" x="48.91" y="0">c</tspan><tspan x="61.92" y="0">ontainer</tspan></text><rect class="cls-6" x="49.9" y="55.11" width="444" height="120" rx="10"/><text class="cls-2" transform="translate(221.81 122.02)">fl<tspan class="cls-3" x="15.02" y="0">e</tspan><tspan class="cls-4" x="28.44" y="0">x</tspan><tspan x="40.7" y="0">-i</tspan><tspan class="cls-5" x="55.37" y="0">t</tspan><tspan x="65.11" y="0">em</tspan></text><rect class="cls-6" x="365.9" y="195.11" width="444" height="120" rx="10"/><text class="cls-2" transform="translate(537.81 262.02)">fl<tspan class="cls-3" x="15.02" y="0">e</tspan><tspan class="cls-4" x="28.44" y="0">x</tspan><tspan x="40.7" y="0">-i</tspan><tspan class="cls-5" x="55.37" y="0">t</tspan><tspan x="65.11" y="0">em</tspan></text><rect class="cls-6" x="513.9" y="55.11" width="296" height="120" rx="10"/><text class="cls-2" transform="translate(611.81 122.02)">fl<tspan class="cls-3" x="15.02" y="0">e</tspan><tspan class="cls-4" x="28.44" y="0">x</tspan><tspan x="40.7" y="0">-i</tspan><tspan class="cls-5" x="55.37" y="0">t</tspan><tspan x="65.11" y="0">em</tspan></text><rect class="cls-6" x="49.9" y="195.11" width="296" height="120" rx="10"/><text class="cls-2" transform="translate(147.81 262.02)">fl<tspan class="cls-3" x="15.02" y="0">e</tspan><tspan class="cls-4" x="28.44" y="0">x</tspan><tspan x="40.7" y="0">-i</tspan><tspan class="cls-5" x="55.37" y="0">t</tspan><tspan x="65.11" y="0">em</tspan></text><path class="cls-7" d="M15.47,182.86v4.5H977.4v-4.5Z"/><path class="cls-7" d="M977.4,182.86l-4.09-4.1a1.49,1.49,0,0,1,0-2.12l1.06-1.06a1.49,1.49,0,0,1,2.12,0l8.47,8.47a1.51,1.51,0,0,1,0,2.12l-8.47,8.47a1.51,1.51,0,0,1-2.12,0l-1.06-1.06a1.49,1.49,0,0,1,0-2.12l4.09-4.1"/><path class="cls-7" d="M2.26,182.87a2.26,2.26,0,1,0,0,4.52l13.21,0v-4.48Z"/><text class="cls-8" transform="translate(851.04 172.86)">main-axis</text><path class="cls-7" d="M506.49,15.47H502v471h4.5Z"/><path class="cls-7" d="M506.49,484.79l4.09-4.1a1.5,1.5,0,0,1,2.13,0l1.06,1.06a1.51,1.51,0,0,1,0,2.12l-8.47,8.47a1.51,1.51,0,0,1-2.12,0l-8.47-8.47a1.49,1.49,0,0,1,0-2.12l1.06-1.06a1.49,1.49,0,0,1,2.12,0l4.1,4.1"/><path class="cls-7" d="M506.48,2.26a2.27,2.27,0,0,0-4.53,0l0,13.21h4.49Z"/><text class="cls-8" transform="translate(491.95 463.74) rotate(-90)">c<tspan class="cls-5" x="13.25" y="0">r</tspan><tspan x="22.32" y="0">oss-axis</tspan></text><path class="cls-9" d="M34.43,346.34c0-.68-1-1.23-2.26-1.23s-2.27.55-2.27,1.23l0,7.17h4.49Z"/><path class="cls-9" d="M29.9,360.68c0,.68,1,1.23,2.26,1.23s2.27-.55,2.27-1.23l0-7.17H29.9Z"/><path class="cls-9" d="M34.43,368.13c0-.67-1-1.22-2.26-1.22s-2.27.55-2.27,1.23l0,7.17h4.49Z"/><path class="cls-9" d="M29.9,382.48c0,.68,1,1.23,2.26,1.23s2.27-.55,2.27-1.23l0-7.17H29.9Z"/><path class="cls-9" d="M34.43,389.93c0-.68-1-1.22-2.26-1.22s-2.27.55-2.27,1.22l0,7.17h4.49Z"/><path class="cls-9" d="M29.9,404.28c0,.68,1,1.22,2.26,1.22s2.27-.55,2.27-1.23l0-7.17H29.9Z"/><text class="cls-10" transform="translate(4.67 434.94)">main<tspan x="0.85" y="24">start</tspan></text><path class="cls-9" d="M829.9,346.34c0-.68-1-1.23-2.26-1.23s-2.26.55-2.26,1.23l0,7.17h4.48Z"/><path class="cls-9" d="M825.38,360.68c0,.68,1,1.23,2.26,1.23s2.26-.55,2.26-1.23l0-7.17h-4.48Z"/><path class="cls-9" d="M829.9,368.13c0-.67-1-1.22-2.26-1.22s-2.26.55-2.26,1.23l0,7.17h4.48Z"/><path class="cls-9" d="M825.38,382.48c0,.68,1,1.23,2.26,1.23s2.26-.55,2.26-1.23l0-7.17h-4.48Z"/><path class="cls-9" d="M829.9,389.93c0-.68-1-1.22-2.26-1.22s-2.26.55-2.26,1.22l0,7.17h4.48Z"/><path class="cls-9" d="M825.38,404.28c0,.68,1,1.22,2.26,1.22s2.26-.55,2.26-1.23l0-7.17h-4.48Z"/><text class="cls-10" transform="translate(800.15 434.94)">main<tspan x="6.1" y="24">end</tspan></text><path class="cls-9" d="M899.07,29.51c.68,0,1.23-1,1.23-2.26S899.75,25,899.07,25l-7.17,0v4.49Z"/><path class="cls-9" d="M884.73,25c-.68,0-1.23,1-1.23,2.26s.55,2.27,1.23,2.27l7.17,0V25Z"/><path class="cls-9" d="M877.27,29.51c.68,0,1.23-1,1.23-2.26S878,25,877.27,25l-7.17,0v4.49Z"/><path class="cls-9" d="M862.93,25c-.68,0-1.23,1-1.23,2.26s.55,2.27,1.23,2.27l7.17,0V25Z"/><path class="cls-9" d="M855.47,29.51c.68,0,1.23-1,1.23-2.26S856.15,25,855.47,25l-7.17,0v4.49Z"/><path class="cls-9" d="M841.13,25c-.68,0-1.23,1-1.23,2.26s.55,2.27,1.23,2.27l7.17,0V25Z"/><text class="cls-10" transform="translate(909.82 22.16)">c<tspan class="cls-5" x="13.25" y="0">r</tspan><tspan x="22.32" y="0">oss</tspan><tspan x="2.74" y="24">start</tspan></text><path class="cls-9" d="M899.07,335.11c.68,0,1.23-1,1.23-2.26s-.55-2.27-1.23-2.27l-7.17,0v4.49Z"/><path class="cls-9" d="M884.73,330.58c-.68,0-1.23,1-1.23,2.26s.55,2.27,1.23,2.27l7.17,0v-4.49Z"/><path class="cls-9" d="M877.27,335.11c.68,0,1.23-1,1.23-2.26s-.55-2.27-1.23-2.27l-7.17,0v4.49Z"/><path class="cls-9" d="M862.93,330.58c-.68,0-1.23,1-1.23,2.26s.55,2.27,1.23,2.27l7.17,0v-4.49Z"/><path class="cls-9" d="M855.47,335.11c.68,0,1.23-1,1.23-2.26s-.55-2.27-1.23-2.27l-7.17,0v4.49Z"/><path class="cls-9" d="M841.13,330.58c-.68,0-1.23,1-1.23,2.26s.55,2.27,1.23,2.27l7.17,0v-4.49Z"/><text class="cls-10" transform="translate(909.82 327.76)">c<tspan class="cls-5" x="13.25" y="0">r</tspan><tspan x="22.32" y="0">oss</tspan><tspan x="7.98" y="24">end</tspan></text><text class="cls-11" transform="translate(219.92 84.81)">main size</text><polyline class="cls-12" points="196.34 75.64 57.79 75.64 57.79 80.14 196.34 80.14"/><path class="cls-12" d="M209.31,80.09a2.23,2.23,0,1,0,0-4.45l-13,0v4.41Z"/><path class="cls-12" d="M57.89,80.14l4.1,4.1a1.49,1.49,0,0,1,0,2.12l-1.06,1.06a1.49,1.49,0,0,1-2.12,0L50.34,79a1.51,1.51,0,0,1,0-2.12l8.47-8.47a1.51,1.51,0,0,1,2.12,0L62,69.42a1.5,1.5,0,0,1,0,2.13l-4.1,4.09"/><polyline class="cls-12" points="347.46 80.12 486.01 80.12 486.01 75.62 347.46 75.62"/><path class="cls-12" d="M334.49,75.67a2.23,2.23,0,0,0,0,4.45l13,0V75.67Z"/><path class="cls-12" d="M485.91,75.62l-4.1-4.1a1.49,1.49,0,0,1,0-2.12l1.06-1.06a1.49,1.49,0,0,1,2.12,0l8.47,8.47a1.49,1.49,0,0,1,0,2.12L485,87.4a1.51,1.51,0,0,1-2.12,0l-1.06-1.06a1.49,1.49,0,0,1,0-2.12l4.1-4.1"/><text class="cls-11" transform="translate(543.49 168.98) rotate(-90)">c<tspan class="cls-5" x="13.25" y="0">r</tspan><tspan x="22.32" y="0">oss size</tspan></text><path class="cls-12" d="M553.47,63.1l-4.1,4.1a1.49,1.49,0,0,1-2.12,0l-1.06-1.06a1.49,1.49,0,0,1,0-2.12l8.47-8.47a1.49,1.49,0,0,1,2.12,0L565.25,64a1.51,1.51,0,0,1,0,2.12l-1.06,1.06a1.5,1.5,0,0,1-2.13,0L558,63.1"/><polyline class="cls-12" points="553.49 61.37 553.49 167.1 557.99 167.1 557.99 61.37"/><path class="cls-12" d="M558,167l4.1-4.09a1.49,1.49,0,0,1,2.12,0l1.06,1.06a1.49,1.49,0,0,1,0,2.12l-8.47,8.47a1.51,1.51,0,0,1-2.12,0l-8.47-8.47a1.51,1.51,0,0,1,0-2.12l1.06-1.06a1.5,1.5,0,0,1,2.13,0l4.09,4.09"/></g></g></svg>