<svg xmlns="http://www.w3.org/2000/svg" xmlns:xlink="http://www.w3.org/1999/xlink" viewBox="0 0 1013.05 525.25"><defs><style>.cls-1{fill:url(#Безымянный_градиент_18);}.cls-2,.cls-6{opacity:0.5;}.cls-10,.cls-11,.cls-2,.cls-8{font-size:24px;font-family:CeraRoundPro-Bold, Cera Round Pro;font-weight:700;}.cls-2{fill:#0b0c32;}.cls-3{letter-spacing:-0.01em;}.cls-4{letter-spacing:-0.02em;}.cls-5{letter-spacing:-0.01em;}.cls-6{fill:#fff;}.cls-7,.cls-8{fill:#005e9f;}.cls-10,.cls-9{fill:#35c8ff;}.cls-11,.cls-12{fill:#00d4a7;}</style><linearGradient id="Безымянный_градиент_18" x1="732.14" y1="487.15" x2="182.98" y2="-62.01" gradientUnits="userSpaceOnUse"><stop offset="0" stop-color="#2f80ed"/><stop offset="1" stop-color="#56ccf2"/></linearGradient></defs><g id="Слой_2" data-name="Слой 2"><g id="Слой_1-2" data-name="Слой 1"><rect class="cls-1" x="57.56" y="57.56" width="800" height="310.02" rx="10"/><text class="cls-2" transform="translate(77.56 82.49)">fl<tspan class="cls-3" x="15.02" y="0">e</tspan><tspan class="cls-4" x="28.44" y="0">x</tspan><tspan x="40.7" y="0">-</tspan><tspan class="cls-5" x="48.91" y="0">c</tspan><tspan x="61.92" y="0">ontainer</tspan></text><rect class="cls-6" x="77.56" y="87.58" width="444" height="120" rx="10"/><text class="cls-2" transform="translate(249.47 154.49)">fl<tspan class="cls-3" x="15.02" y="0">e</tspan><tspan class="cls-4" x="28.44" y="0">x</tspan><tspan x="40.7" y="0">-i</tspan><tspan class="cls-5" x="55.37" y="0">t</tspan><tspan x="65.11" y="0">em</tspan></text><rect class="cls-6" x="393.56" y="227.58" width="444" height="120" rx="10"/><text class="cls-2" transform="translate(565.47 294.49)">fl<tspan class="cls-3" x="15.02" y="0">e</tspan><tspan class="cls-4" x="28.44" y="0">x</tspan><tspan x="40.7" y="0">-i</tspan><tspan class="cls-5" x="55.37" y="0">t</tspan><tspan x="65.11" y="0">em</tspan></text><rect class="cls-6" x="541.56" y="87.58" width="296" height="120" rx="10"/><text class="cls-2" transform="translate(639.47 154.49)">fl<tspan class="cls-3" x="15.02" y="0">e</tspan><tspan class="cls-4" x="28.44" y="0">x</tspan><tspan x="40.7" y="0">-i</tspan><tspan class="cls-5" x="55.37" y="0">t</tspan><tspan x="65.11" y="0">em</tspan></text><rect class="cls-6" x="77.56" y="227.58" width="296" height="120" rx="10"/><text class="cls-2" transform="translate(175.47 294.49)">fl<tspan class="cls-3" x="15.02" y="0">e</tspan><tspan class="cls-4" x="28.44" y="0">x</tspan><tspan x="40.7" y="0">-i</tspan><tspan class="cls-5" x="55.37" y="0">t</tspan><tspan x="65.11" y="0">em</tspan></text><path class="cls-7" d="M43.13,215.33v4.5h961.93v-4.5Z"/><path class="cls-7" d="M1005.06,215.33l-4.1-4.1a1.51,1.51,0,0,1,0-2.12l1.06-1.06a1.5,1.5,0,0,1,2.13,0l8.46,8.47a1.49,1.49,0,0,1,0,2.12l-8.46,8.47a1.5,1.5,0,0,1-2.13,0l-1.06-1.06a1.51,1.51,0,0,1,0-2.12l4.1-4.1"/><path class="cls-7" d="M29.92,215.34a2.27,2.27,0,0,0,0,4.53l13.21,0v-4.49Z"/><text class="cls-8" transform="translate(878.7 205.33)">main-axis</text><path class="cls-7" d="M460.84,47.94h-4.5V519h4.5Z"/><path class="cls-7" d="M460.84,517.26l4.1-4.1a1.49,1.49,0,0,1,2.12,0l1.06,1.06a1.49,1.49,0,0,1,0,2.12l-8.47,8.47a1.49,1.49,0,0,1-2.12,0l-8.47-8.47a1.49,1.49,0,0,1,0-2.12l1.06-1.06a1.49,1.49,0,0,1,2.12,0l4.1,4.1"/><path class="cls-7" d="M460.83,34.73a2.27,2.27,0,0,0-4.53,0l0,13.2h4.49Z"/><text class="cls-8" transform="translate(446.3 496.22) rotate(-90)">c<tspan class="cls-5" x="13.25" y="0">r</tspan><tspan x="22.32" y="0">oss-axis</tspan></text><path class="cls-9" d="M62.09,378.81c0-.68-1-1.23-2.27-1.23s-2.26.55-2.26,1.23l0,7.17h4.48Z"/><path class="cls-9" d="M57.56,393.15c0,.68,1,1.23,2.26,1.23s2.27-.55,2.27-1.23l0-7.17H57.56Z"/><path class="cls-9" d="M62.09,400.61c0-.68-1-1.23-2.27-1.23s-2.26.55-2.26,1.23l0,7.17h4.48Z"/><path class="cls-9" d="M57.56,415c0,.68,1,1.23,2.26,1.23s2.27-.55,2.27-1.23l0-7.17H57.56Z"/><path class="cls-9" d="M62.09,422.41c0-.68-1-1.23-2.27-1.23s-2.26.55-2.26,1.23l0,7.17h4.48Z"/><path class="cls-9" d="M57.56,436.75c0,.68,1,1.23,2.26,1.23s2.27-.55,2.27-1.23l0-7.17H57.56Z"/><text class="cls-10" transform="translate(32.33 467.41)">main<tspan x="0.85" y="24">start</tspan></text><path class="cls-9" d="M857.56,378.81c0-.68-1-1.23-2.26-1.23s-2.27.55-2.27,1.23l0,7.17h4.49Z"/><path class="cls-9" d="M853,393.15c0,.68,1,1.23,2.27,1.23s2.26-.55,2.26-1.23l0-7.17H853Z"/><path class="cls-9" d="M857.56,400.61c0-.68-1-1.23-2.26-1.23s-2.27.55-2.27,1.23l0,7.17h4.49Z"/><path class="cls-9" d="M853,415c0,.68,1,1.23,2.27,1.23s2.26-.55,2.26-1.23l0-7.17H853Z"/><path class="cls-9" d="M857.56,422.41c0-.68-1-1.23-2.26-1.23s-2.27.55-2.27,1.23l0,7.17h4.49Z"/><path class="cls-9" d="M853,436.75c0,.68,1,1.23,2.27,1.23s2.26-.55,2.26-1.23l0-7.17H853Z"/><text class="cls-10" transform="translate(827.8 467.41)">main<tspan x="6.1" y="24">end</tspan></text><path class="cls-9" d="M926.73,62c.68,0,1.23-1,1.23-2.26s-.55-2.27-1.23-2.27l-7.17,0V62Z"/><path class="cls-9" d="M912.38,57.45c-.67,0-1.22,1-1.22,2.27s.55,2.26,1.23,2.26l7.17,0V57.45Z"/><path class="cls-9" d="M904.93,62c.68,0,1.23-1,1.23-2.26s-.55-2.27-1.23-2.27l-7.17,0V62Z"/><path class="cls-9" d="M890.59,57.45c-.68,0-1.23,1-1.23,2.27s.55,2.26,1.23,2.26l7.17,0V57.45Z"/><path class="cls-9" d="M883.13,62c.68,0,1.23-1,1.23-2.26s-.55-2.27-1.23-2.27l-7.17,0V62Z"/><path class="cls-9" d="M868.79,57.45c-.68,0-1.23,1-1.23,2.27s.55,2.26,1.23,2.26l7.17,0V57.45Z"/><text class="cls-10" transform="translate(937.48 54.63)">c<tspan class="cls-5" x="13.25" y="0">r</tspan><tspan x="22.32" y="0">oss</tspan><tspan x="2.74" y="24">start</tspan></text><path class="cls-9" d="M926.73,367.58c.68,0,1.23-1,1.23-2.26s-.55-2.27-1.23-2.27l-7.17,0v4.49Z"/><path class="cls-9" d="M912.38,363.05c-.67,0-1.22,1-1.22,2.27s.55,2.26,1.23,2.26l7.17,0v-4.48Z"/><path class="cls-9" d="M904.93,367.58c.68,0,1.23-1,1.23-2.26s-.55-2.27-1.23-2.27l-7.17,0v4.49Z"/><path class="cls-9" d="M890.59,363.05c-.68,0-1.23,1-1.23,2.27s.55,2.26,1.23,2.26l7.17,0v-4.48Z"/><path class="cls-9" d="M883.13,367.58c.68,0,1.23-1,1.23-2.26s-.55-2.27-1.23-2.27l-7.17,0v4.49Z"/><path class="cls-9" d="M868.79,363.05c-.68,0-1.23,1-1.23,2.27s.55,2.26,1.23,2.26l7.17,0v-4.48Z"/><text class="cls-10" transform="translate(937.48 360.23)">c<tspan class="cls-5" x="13.25" y="0">r</tspan><tspan x="22.32" y="0">oss</tspan><tspan x="7.98" y="24">end</tspan></text><text class="cls-11" transform="translate(19.92 266.45) rotate(-90)">c<tspan class="cls-5" x="13.25" y="0">r</tspan><tspan x="22.32" y="0">oss size</tspan></text><path class="cls-12" d="M15.26,134.28V63h-4.5v71.24"/><polyline class="cls-12" points="10.76 290.69 10.76 362.1 15.26 362.1 15.26 290.69"/><path class="cls-12" d="M10.76,365.34A2.22,2.22,0,0,0,13,367.56h2.76v-4.42h-.49v-1h-4.5Z"/><path class="cls-12" d="M15.75,363.15v4.42H32.36v-4.42Z"/><path class="cls-12" d="M45.34,367.58a2.23,2.23,0,0,0,0-4.45l-13,0v4.41Z"/><path class="cls-12" d="M10.76,59.8A2.22,2.22,0,0,1,13,57.58h2.76V62h-.49v1h-4.5Z"/><path class="cls-12" d="M15.75,62V57.58H32.36V62Z"/><path class="cls-12" d="M45.34,57.56a2.23,2.23,0,0,1,0,4.45l-13,0V57.56Z"/><path class="cls-12" d="M15.2,277.72a2.22,2.22,0,0,0-4.44,0l0,13h4.4Z"/><path class="cls-12" d="M10.81,147.25a2.23,2.23,0,0,0,4.45,0l0-13H10.81Z"/><text class="cls-11" transform="translate(402.44 19.92)">main size</text><path class="cls-12" d="M530.74,15.26H849.81v-4.5H530.74"/><polyline class="cls-12" points="378.85 10.76 63.04 10.76 63.04 15.26 378.85 15.26"/><path class="cls-12" d="M59.8,10.76A2.22,2.22,0,0,0,57.58,13v2.76H62v-.49h1v-4.5Z"/><path class="cls-12" d="M62,15.75H57.58V32.36H62Z"/><path class="cls-12" d="M57.56,45.34a2.23,2.23,0,0,0,4.45,0l0-13H57.56Z"/><path class="cls-12" d="M853.05,10.76A2.22,2.22,0,0,1,855.28,13v2.76h-4.41v-.49h-1.06v-4.5Z"/><path class="cls-12" d="M850.87,15.75h4.41V32.36h-4.41Z"/><path class="cls-12" d="M855.3,45.34a2.23,2.23,0,0,1-4.45,0l0-13h4.41Z"/><path class="cls-12" d="M391.82,15.2a2.22,2.22,0,1,0,0-4.44l-13,0v4.4Z"/><path class="cls-12" d="M517.76,10.81a2.23,2.23,0,0,0,0,4.45l13,0V10.81Z"/></g></g></svg>