<svg xmlns="http://www.w3.org/2000/svg" viewBox="0 0 820 520"><defs><style>.cls-1{fill:#fff;}</style></defs><g id="Слой_2" data-name="Слой 2"><g id="Слой_1-2" data-name="Слой 1"><path class="cls-1" d="M800,10a10,10,0,0,1,10,10V500a10,10,0,0,1-10,10H20a10,10,0,0,1-10-10V20A10,10,0,0,1,20,10H800m0-10H20A20,20,0,0,0,0,20V500a20,20,0,0,0,20,20H800a20,20,0,0,0,20-20V20A20,20,0,0,0,800,0Z"/><path class="cls-1" d="M800,10a10,10,0,0,1,10,10v86H10V20A10,10,0,0,1,20,10H800m0-10H20A20,20,0,0,0,0,20v96H820V20A20,20,0,0,0,800,0Z"/><rect class="cls-1" x="35" y="140.4" width="350" height="344" rx="15"/><path class="cls-1" d="M370,145.4a10,10,0,0,1,10,10v314a10,10,0,0,1-10,10H50a10,10,0,0,1-10-10v-314a10,10,0,0,1,10-10H370m0-10H50a20,20,0,0,0-20,20v314a20,20,0,0,0,20,20H370a20,20,0,0,0,20-20v-314a20,20,0,0,0-20-20Z"/><rect class="cls-1" x="420" y="140.4" width="365" height="344" rx="15"/><path class="cls-1" d="M770,145.4a10,10,0,0,1,10,10v314a10,10,0,0,1-10,10H435a10,10,0,0,1-10-10v-314a10,10,0,0,1,10-10H770m0-10H435a20,20,0,0,0-20,20v314a20,20,0,0,0,20,20H770a20,20,0,0,0,20-20v-314a20,20,0,0,0-20-20Z"/></g></g></svg>