<svg xmlns="http://www.w3.org/2000/svg" viewBox="0 0 418.44 67.87"><defs><style>.cls-1{fill:#0b0c32;}</style></defs><g id="Слой_2" data-name="Слой 2"><g id="Слой_1-2" data-name="Слой 1"><path class="cls-1" d="M7.72,8l-4.1,4.1a1.49,1.49,0,0,1-2.12,0L.44,11a1.49,1.49,0,0,1,0-2.12L8.91.44A1.49,1.49,0,0,1,11,.44L19.5,8.91a1.49,1.49,0,0,1,0,2.12l-1.06,1.06a1.49,1.49,0,0,1-2.12,0L12.22,8"/><path class="cls-1" d="M13,36.09v-4.5H413v4.5Z"/><path class="cls-1" d="M10,36.09a2.23,2.23,0,0,1-2.23-2.23V31.1h4.42v.49h1.05v4.5Z"/><path class="cls-1" d="M12.18,31.1H7.76V8h4.42Z"/><path class="cls-1" d="M416.22,31.59a2.22,2.22,0,0,1,2.22,2.23v2.76H414V36.1H413v-4.5Z"/><path class="cls-1" d="M418.44,65.65a2.22,2.22,0,1,1-4.44,0l0-13h4.4Z"/><path class="cls-1" d="M418.44,52.67H414V36.58h4.41Z"/></g></g></svg>