<svg xmlns="http://www.w3.org/2000/svg" viewBox="0 0 19.94 410.68"><defs><style>.cls-1{fill:#0b0c32;}</style></defs><g id="Слой_2" data-name="Слой 2"><g id="Слой_1-2" data-name="Слой 1"><path class="cls-1" d="M12.22,15.32H7.72V402.69h4.5Z"/><path class="cls-1" d="M12.22,402.69l4.1-4.1a1.49,1.49,0,0,1,2.12,0l1.06,1.06a1.49,1.49,0,0,1,0,2.12L11,410.24a1.49,1.49,0,0,1-2.12,0L.44,401.77a1.49,1.49,0,0,1,0-2.12l1.06-1.06a1.49,1.49,0,0,1,2.12,0l4.1,4.1"/><path class="cls-1" d="M12.21,2.26a2.27,2.27,0,0,0-4.53,0l0,13.21h4.49Z"/></g></g></svg>