<svg xmlns="http://www.w3.org/2000/svg" viewBox="0 0 410.68 19.94"><defs><style>.cls-1{fill:#0b0c32;}</style></defs><g id="Слой_2" data-name="Слой 2"><g id="Слой_1-2" data-name="Слой 1"><path class="cls-1" d="M15.32,7.72v4.5H402.69V7.72Z"/><path class="cls-1" d="M402.69,7.72l-4.1-4.1a1.49,1.49,0,0,1,0-2.12L399.65.44a1.49,1.49,0,0,1,2.12,0l8.47,8.47a1.49,1.49,0,0,1,0,2.12l-8.47,8.47a1.49,1.49,0,0,1-2.12,0l-1.06-1.06a1.49,1.49,0,0,1,0-2.12l4.1-4.1"/><path class="cls-1" d="M2.26,7.73a2.27,2.27,0,0,0,0,4.53l13.21,0V7.73Z"/></g></g></svg>