<svg xmlns="http://www.w3.org/2000/svg" viewBox="0 0 19.94 410.68"><defs><style>.cls-1{fill:#0b0c32;}</style></defs><g id="Слой_2" data-name="Слой 2"><g id="Слой_1-2" data-name="Слой 1"><path class="cls-1" d="M7.72,395.36h4.5V8H7.72Z"/><path class="cls-1" d="M7.72,8l-4.1,4.1a1.49,1.49,0,0,1-2.12,0L.44,11a1.49,1.49,0,0,1,0-2.12L8.91.44A1.49,1.49,0,0,1,11,.44L19.5,8.91a1.49,1.49,0,0,1,0,2.12l-1.06,1.06a1.49,1.49,0,0,1-2.12,0L12.22,8"/><path class="cls-1" d="M7.73,408.42a2.27,2.27,0,0,0,4.53,0l0-13.21H7.73Z"/></g></g></svg>