<svg xmlns="http://www.w3.org/2000/svg" viewBox="0 0 410.68 19.94"><defs><style>.cls-1{fill:#0b0c32;}</style></defs><g id="Слой_2" data-name="Слой 2"><g id="Слой_1-2" data-name="Слой 1"><path class="cls-1" d="M395.36,12.22V7.72H8v4.5Z"/><path class="cls-1" d="M8,12.22l4.1,4.1a1.49,1.49,0,0,1,0,2.12L11,19.5a1.49,1.49,0,0,1-2.12,0L.44,11a1.49,1.49,0,0,1,0-2.12L8.91.44A1.49,1.49,0,0,1,11,.44L12.09,1.5a1.49,1.49,0,0,1,0,2.12L8,7.72"/><path class="cls-1" d="M408.42,12.21a2.27,2.27,0,0,0,0-4.53l-13.21,0v4.49Z"/></g></g></svg>