<svg xmlns="http://www.w3.org/2000/svg" viewBox="0 0 418.44 67.87"><defs><style>.cls-1{fill:#0b0c32;}</style></defs><g id="Слой_2" data-name="Слой 2"><g id="Слой_1-2" data-name="Слой 1"><path class="cls-1" d="M12.22,59.88l4.1-4.1a1.49,1.49,0,0,1,2.12,0l1.06,1.06a1.49,1.49,0,0,1,0,2.12L11,67.43a1.49,1.49,0,0,1-2.12,0L.44,59a1.49,1.49,0,0,1,0-2.12L1.5,55.78a1.49,1.49,0,0,1,2.12,0l4.1,4.1"/><path class="cls-1" d="M13,31.78v4.5H413v-4.5Z"/><path class="cls-1" d="M10,31.78A2.23,2.23,0,0,0,7.76,34v2.76h4.42v-.49h1.05v-4.5Z"/><path class="cls-1" d="M12.18,36.77H7.76V59.89h4.42Z"/><path class="cls-1" d="M416.22,36.28a2.22,2.22,0,0,0,2.22-2.23V31.29H414v.48H413v4.5Z"/><path class="cls-1" d="M418.44,2.22a2.22,2.22,0,1,0-4.44,0l0,13h4.4Z"/><path class="cls-1" d="M418.44,15.2H414V31.29h4.41Z"/></g></g></svg>