<svg xmlns="http://www.w3.org/2000/svg" viewBox="0 0 876.23 386.83"><defs><style>.cls-1{fill:#fff;}</style></defs><g id="Слой_2" data-name="Слой 2"><g id="Слой_1-2" data-name="Слой 1"><path class="cls-1" d="M250,29.41a10,10,0,0,1,10,10v312a10,10,0,0,1-10,10H20a10,10,0,0,1-10-10v-312a10,10,0,0,1,10-10H250m0-10H20a20,20,0,0,0-20,20v312a20,20,0,0,0,20,20H250a20,20,0,0,0,20-20v-312a20,20,0,0,0-20-20Z"/><path class="cls-1" d="M20,29.41H250a10,10,0,0,1,10,10v46a0,0,0,0,1,0,0H10a0,0,0,0,1,0,0v-46A10,10,0,0,1,20,29.41Z"/><rect class="cls-1" x="30" y="105.41" width="210" height="12" rx="6"/><rect class="cls-1" x="30" y="127.41" width="210" height="12" rx="6"/><rect class="cls-1" x="30" y="149.41" width="210" height="12" rx="6"/><rect class="cls-1" x="30" y="171.41" width="210" height="12" rx="6"/><rect class="cls-1" x="30" y="193.41" width="210" height="12" rx="6"/><rect class="cls-1" x="30" y="215.41" width="210" height="12" rx="6"/><rect class="cls-1" x="30" y="237.41" width="210" height="12" rx="6"/><rect class="cls-1" x="30" y="305.41" width="210" height="36" rx="10"/><path class="cls-1" d="M856.23,29.41a10,10,0,0,1,10,10v312a10,10,0,0,1-10,10h-230a10,10,0,0,1-10-10v-312a10,10,0,0,1,10-10h230m0-10h-230a20,20,0,0,0-20,20v312a20,20,0,0,0,20,20h230a20,20,0,0,0,20-20v-312a20,20,0,0,0-20-20Z"/><path class="cls-1" d="M626.23,29.41h230a10,10,0,0,1,10,10v46a0,0,0,0,1,0,0h-250a0,0,0,0,1,0,0v-46A10,10,0,0,1,626.23,29.41Z"/><rect class="cls-1" x="636.23" y="105.41" width="210" height="12" rx="6"/><rect class="cls-1" x="636.23" y="127.41" width="210" height="12" rx="6"/><rect class="cls-1" x="636.23" y="149.41" width="210" height="12" rx="6"/><rect class="cls-1" x="636.23" y="171.41" width="210" height="12" rx="6"/><rect class="cls-1" x="636.23" y="193.41" width="210" height="12" rx="6"/><rect class="cls-1" x="636.23" y="215.41" width="210" height="12" rx="6"/><rect class="cls-1" x="636.23" y="237.41" width="210" height="12" rx="6"/><rect class="cls-1" x="636.23" y="305.41" width="210" height="36" rx="10"/><path class="cls-1" d="M566.23,10a10,10,0,0,1,10,10V366.83a10,10,0,0,1-10,10H310a10,10,0,0,1-10-10V20a10,10,0,0,1,10-10H566.23m0-10H310a20,20,0,0,0-20,20V366.83a20,20,0,0,0,20,20H566.23a20,20,0,0,0,20-20V20a20,20,0,0,0-20-20Z"/><path class="cls-1" d="M310,10H566.23a10,10,0,0,1,10,10V71.87a0,0,0,0,1,0,0H300a0,0,0,0,1,0,0V20A10,10,0,0,1,310,10Z"/><rect class="cls-1" x="322.1" y="93.97" width="232.03" height="13.26" rx="6"/><rect class="cls-1" x="322.1" y="118.28" width="232.03" height="13.26" rx="6"/><rect class="cls-1" x="322.1" y="142.59" width="232.03" height="13.26" rx="6"/><rect class="cls-1" x="322.1" y="166.9" width="232.03" height="13.26" rx="6"/><rect class="cls-1" x="322.1" y="191.21" width="232.03" height="13.26" rx="6"/><rect class="cls-1" x="322.1" y="215.51" width="232.03" height="13.26" rx="6"/><rect class="cls-1" x="322.1" y="239.82" width="232.03" height="13.26" rx="6"/><rect class="cls-1" x="322.1" y="314.95" width="232.03" height="39.78" rx="10"/></g></g></svg>