<svg xmlns="http://www.w3.org/2000/svg" viewBox="0 0 720 167"><defs><style>.cls-1{fill:#fff;}</style></defs><g id="Слой_2" data-name="Слой 2"><g id="Слой_1-2" data-name="Слой 1"><path class="cls-1" d="M210,10a10,10,0,0,1,10,10V56a10,10,0,0,1-10,10H20A10,10,0,0,1,10,56V20A10,10,0,0,1,20,10H210m0-10H20A20,20,0,0,0,0,20V56A20,20,0,0,0,20,76H210a20,20,0,0,0,20-20V20A20,20,0,0,0,210,0Z"/><circle class="cls-1" cx="38" cy="38" r="18"/><rect class="cls-1" x="66" y="32.26" width="144" height="12" rx="4.7"/><path class="cls-1" d="M455,10a10,10,0,0,1,10,10V56a10,10,0,0,1-10,10H265a10,10,0,0,1-10-10V20a10,10,0,0,1,10-10H455m0-10H265a20,20,0,0,0-20,20V56a20,20,0,0,0,20,20H455a20,20,0,0,0,20-20V20A20,20,0,0,0,455,0Z"/><circle class="cls-1" cx="283" cy="38" r="18"/><rect class="cls-1" x="311" y="32" width="144" height="12" rx="4.7"/><path class="cls-1" d="M700,10a10,10,0,0,1,10,10V56a10,10,0,0,1-10,10H510a10,10,0,0,1-10-10V20a10,10,0,0,1,10-10H700m0-10H510a20,20,0,0,0-20,20V56a20,20,0,0,0,20,20H700a20,20,0,0,0,20-20V20A20,20,0,0,0,700,0Z"/><circle class="cls-1" cx="528" cy="38" r="18"/><rect class="cls-1" x="556" y="32" width="144" height="12" rx="4.7"/><path class="cls-1" d="M332.5,101a10,10,0,0,1,10,10v36a10,10,0,0,1-10,10H20a10,10,0,0,1-10-10V111a10,10,0,0,1,10-10H332.5m0-10H20A20,20,0,0,0,0,111v36a20,20,0,0,0,20,20H332.5a20,20,0,0,0,20-20V111a20,20,0,0,0-20-20Z"/><circle class="cls-1" cx="38" cy="129" r="18"/><rect class="cls-1" x="66" y="123" width="266.5" height="12" rx="4.7"/><path class="cls-1" d="M700,101a10,10,0,0,1,10,10v36a10,10,0,0,1-10,10H387.5a10,10,0,0,1-10-10V111a10,10,0,0,1,10-10H700m0-10H387.5a20,20,0,0,0-20,20v36a20,20,0,0,0,20,20H700a20,20,0,0,0,20-20V111a20,20,0,0,0-20-20Z"/><circle class="cls-1" cx="405.5" cy="129" r="18"/><rect class="cls-1" x="433.5" y="123" width="266.5" height="12" rx="4.7"/></g></g></svg>