<svg xmlns="http://www.w3.org/2000/svg" viewBox="0 0 270 352"><defs><style>.cls-1{fill:#fff;}</style></defs><g id="Слой_2" data-name="Слой 2"><g id="Слой_1-2" data-name="Слой 1"><path class="cls-1" d="M250,10a10,10,0,0,1,10,10V332a10,10,0,0,1-10,10H20a10,10,0,0,1-10-10V20A10,10,0,0,1,20,10H250m0-10H20A20,20,0,0,0,0,20V332a20,20,0,0,0,20,20H250a20,20,0,0,0,20-20V20A20,20,0,0,0,250,0Z"/><rect class="cls-1" x="30" y="30" width="210" height="150" rx="10"/><rect class="cls-1" x="30" y="200" width="210" height="12" rx="6"/><rect class="cls-1" x="30" y="232" width="210" height="12" rx="6"/><rect class="cls-1" x="30" y="254" width="210" height="12" rx="6"/><rect class="cls-1" x="30" y="286" width="210" height="36" rx="10"/></g></g></svg>