<svg id="Слой_1" data-name="Слой 1" xmlns="http://www.w3.org/2000/svg" viewBox="0 0 1920 1080"><defs><style>.cls-1{opacity:0.4;}.cls-2,.cls-3{fill:none;}.cls-2{stroke:#0000a7;stroke-opacity:0.5;}.cls-3{stroke:#0000fe;stroke-width:3px;}.cls-4{fill:#0000fe;}</style></defs><g class="cls-1"><circle class="cls-2" cx="202.4" cy="55.68" r="12"/><circle class="cls-3" cx="189.9" cy="43.18" r="12.5"/><path class="cls-3" d="M27.92,460.13l13,15,16.26-15,13,15,13.93-15,15.8,15"/><path class="cls-4" d="M356.79,221.31,350.06,228l6.73,6.72-2.68,2.68-6.73-6.7-6.7,6.7-2.7-2.69,6.7-6.71-6.7-6.71,2.7-2.7,6.7,6.71,6.73-6.71Z"/><path class="cls-2" d="M726,121.75,745.52,133,726,144.26Z"/><path class="cls-3" d="M713,114.75,732.52,126,713,137.26Z"/></g><g class="cls-1"><circle class="cls-2" cx="1537.51" cy="153.48" r="12"/><circle class="cls-3" cx="1545.95" cy="169.01" r="12.5"/><path class="cls-3" d="M1812,81.61l-8.22-18.08L1784,73.3l-8.22-18.07-17.62,10.43L1747.24,46.8"/><path class="cls-4" d="M1329.9,110.49l8.36-4.54-4.54-8.35,3.33-1.81,4.54,8.34,8.34-4.53,1.82,3.35-8.33,4.53,4.53,8.33-3.36,1.82-4.53-8.33-8.35,4.52Z"/><path class="cls-2" d="M1039.73,151.1l-15.5-16.33,21.89-5.26Z"/><path class="cls-3" d="M1050.21,161.5l-15.5-16.33,21.89-5.26Z"/></g><g class="cls-1"><circle class="cls-2" cx="343.94" cy="829.86" r="12"/><circle class="cls-3" cx="360.05" cy="837.13" r="12.5"/><path class="cls-3" d="M114.7,965.12l19.62,9.47-9.1,18.34,18.63,6.86-8.28,20.51,18.63,6.86"/><path class="cls-4" d="M150.83,545.77l-3.89,8.67,8.65,3.9L154,561.82l-8.65-3.9-3.9,8.64L138,565l3.9-8.64-8.65-3.92L134.8,549l8.67,3.91,3.91-8.67Z"/><path class="cls-2" d="M145.37,259.8,149,237.58l17.43,14.26Z"/><path class="cls-3" d="M156.51,269.49l3.64-22.23,17.42,14.26Z"/></g><g class="cls-1"><circle class="cls-2" cx="1606.77" cy="574.41" r="12"/><circle class="cls-3" cx="1619.08" cy="561.72" r="12.5"/><path class="cls-3" d="M1752.54,1051.86l15.56-15.25,14.17,14.79,12.77-15.2,16.49,14.74,12.77-15.2"/><path class="cls-4" d="M1370.32,875.61l6.83,6.6,6.6-6.81,2.74,2.66-6.6,6.81,6.81,6.6-2.65,2.74-6.81-6.61-6.63,6.82-2.72-2.64,6.63-6.83-6.83-6.62Z"/><path class="cls-2" d="M1196.76,957.56l-19.68-11,19.33-11.55Z"/><path class="cls-3" d="M1209.65,950.36l-19.68-11,19.33-11.56Z"/></g><g class="cls-1"><circle class="cls-2" cx="857.62" cy="930.7" r="12"/><circle class="cls-3" cx="843.58" cy="919.97" r="12.5"/><path class="cls-3" d="M520.13,1014.43,535,1027.57l14.12-17L564,1023.69,575.84,1007l17.64,12.77"/><path class="cls-4" d="M1755.67,781l-5.78,7.56,7.56,5.77-2.3,3-7.55-5.75-5.76,7.53-3-2.31,5.75-7.54-7.53-5.76,2.31-3,7.54,5.76,5.78-7.54Z"/><path class="cls-2" d="M1776.13,362.17l20.82,8.57-17.84,13.74Z"/><path class="cls-3" d="M1762.32,357l20.82,8.58-17.84,13.74Z"/></g></svg>